<?xml version="1.0" standalone="no"?>
<!DOCTYPE svg PUBLIC "-//W3C//DTD SVG 20010904//EN"
 "http://www.w3.org/TR/2001/REC-SVG-20010904/DTD/svg10.dtd">
<svg version="1.0" xmlns="http://www.w3.org/2000/svg"
 width="1707.000000pt" height="1707.000000pt" viewBox="0 0 1707.000000 1707.000000"
 preserveAspectRatio="xMidYMid meet">
<metadata>
Created by potrace 1.11, written by Peter Selinger 2001-2013
</metadata>
<g transform="translate(0.000000,1707.000000) scale(0.100000,-0.100000)"
fill="#000000" stroke="none">
<path d="M8445 17048 c-62 -24 -231 -73 -305 -87 -61 -12 -60 -12 -215 -41
-324 -61 -371 -73 -361 -88 3 -5 29 -10 59 -11 29 -1 63 -3 75 -6 12 -2 89 -7
170 -10 311 -12 421 -21 492 -37 83 -19 112 -21 121 -7 6 10 17 6 48 -14 54
-36 107 -39 133 -7 20 24 25 23 42 -12 19 -37 63 -52 171 -56 136 -5 197 -23
351 -105 17 -10 78 -29 135 -43 174 -42 378 -103 500 -149 65 -24 132 -46 150
-49 19 -3 48 -8 64 -11 39 -6 161 -13 560 -30 237 -11 299 -16 375 -30 59 -11
111 -14 106 -6 -5 8 -64 21 -186 41 -106 17 -121 19 -232 35 -18 2 -76 11
-128 19 -52 8 -113 17 -135 20 -22 3 -57 7 -77 10 -21 3 -55 8 -75 11 -21 3
-51 7 -68 10 -16 3 -46 7 -65 9 -19 3 -57 7 -85 11 -27 3 -72 10 -100 15 -27
5 -70 12 -95 15 -25 3 -57 7 -72 10 -16 3 -39 7 -52 9 -24 4 -67 24 -76 35 -3
3 -23 19 -45 36 -22 16 -152 119 -289 228 l-249 200 -128 -27 -128 -27 -148
74 c-81 41 -157 77 -168 80 -11 2 -42 -4 -70 -15z"/>
<path d="M7432 16829 c-47 -10 -65 -29 -26 -29 40 0 104 19 104 30 0 10 -25
10 -78 -1z"/>
<path d="M6747 16694 c-2 -2 -52 -9 -134 -19 -11 -2 -29 -5 -40 -9 -10 -3 -37
-8 -61 -11 -97 -14 -194 -54 -565 -234 -265 -129 -482 -228 -731 -333 -67 -28
-123 -52 -124 -54 -2 -1 -15 -40 -29 -86 -46 -154 -41 -171 31 -109 25 21 66
49 91 62 51 25 44 40 -17 36 -20 -2 -43 0 -53 3 -15 5 -13 8 11 17 29 11 118
34 204 54 25 5 58 17 73 25 16 9 29 14 30 12 2 -1 10 -20 20 -40 9 -21 21 -38
26 -38 15 0 83 45 111 74 14 14 30 26 36 26 5 0 17 8 26 18 34 36 50 44 73 38
14 -4 46 3 77 15 29 12 67 25 84 30 36 10 238 131 272 162 18 17 22 31 22 78
0 32 3 64 6 73 7 19 41 21 46 4 3 -8 15 -5 39 9 35 22 98 46 159 59 19 4 40 9
45 10 6 2 54 15 108 29 113 30 227 73 227 86 0 5 -3 9 -7 10 -5 0 -18 2 -31 3
-12 2 -23 2 -25 0z m-1385 -576 c-7 -7 -12 -8 -12 -2 0 14 12 26 19 19 2 -3
-1 -11 -7 -17z"/>
<path d="M11180 16246 c0 -8 32 -25 78 -41 78 -27 108 -46 192 -119 25 -23 69
-59 96 -80 78 -62 259 -251 278 -290 9 -19 43 -56 76 -81 67 -52 81 -72 88
-130 6 -51 26 -91 69 -136 30 -32 38 -52 42 -111 1 -20 73 -78 78 -63 12 34
20 38 50 20 42 -24 55 -49 43 -79 -7 -21 -6 -26 10 -31 36 -11 22 -41 -42 -89
-27 -20 -38 -36 -38 -55 0 -14 -9 -57 -20 -95 -11 -38 -17 -73 -14 -77 7 -13
59 -11 88 3 22 9 29 8 46 -7 19 -17 27 -64 14 -78 -4 -4 -20 3 -36 14 -38 27
-44 19 -24 -31 13 -32 13 -40 2 -40 -15 0 -40 27 -49 53 -10 28 -29 16 -44
-29 -16 -46 -61 -89 -121 -116 -46 -21 -48 -32 -5 -41 34 -7 123 -63 123 -77
0 -9 -43 -7 -101 5 -26 6 -59 -14 -59 -36 0 -5 20 -58 44 -117 24 -59 51 -144
60 -189 8 -45 22 -99 31 -119 8 -20 15 -45 15 -55 0 -10 11 -38 24 -63 20 -37
23 -56 20 -103 -12 -161 -20 -183 -69 -183 -27 0 -38 6 -51 28 -10 15 -36 45
-58 67 -23 22 -56 58 -74 79 -18 21 -35 36 -38 34 -2 -3 -8 -25 -12 -49 -4
-24 -12 -42 -17 -39 -15 8 -14 50 2 104 16 54 6 80 -22 56 -8 -7 -15 -10 -15
-6 0 4 -13 0 -30 -9 -41 -21 -45 -20 -65 25 -18 40 -35 52 -35 25 0 -8 -6 -16
-12 -16 -7 -1 -20 -2 -28 -3 -26 -2 -15 -58 22 -116 32 -50 58 -110 58 -131 0
-21 -30 -4 -102 57 -81 67 -92 69 -58 9 28 -50 26 -65 -10 -65 -16 0 -30 -4
-30 -8 0 -5 25 -66 56 -136 31 -70 54 -130 51 -132 -5 -5 -78 124 -91 161 -5
14 -9 16 -15 7 -14 -23 -12 -126 4 -238 8 -60 18 -123 20 -139 2 -17 7 -69 10
-115 7 -100 12 -132 27 -183 8 -27 8 -44 0 -63 -7 -13 -12 -42 -12 -64 0 -21
-5 -51 -11 -67 -10 -26 -12 -26 -19 -8 -7 19 -19 110 -20 148 0 35 -19 6 -30
-48 -7 -34 -17 -55 -25 -55 -7 0 -39 51 -71 113 -61 120 -90 169 -121 204 -21
24 -95 47 -122 38 -21 -6 -33 -40 -26 -75 3 -13 7 -42 10 -65 4 -22 8 -51 10
-65 2 -14 7 -54 10 -90 4 -36 9 -74 11 -84 2 -11 8 -56 14 -100 6 -45 17 -119
25 -166 7 -47 16 -107 20 -135 3 -27 8 -63 10 -80 2 -16 7 -57 10 -90 3 -33 8
-78 10 -100 2 -22 7 -74 10 -115 3 -41 7 -93 10 -115 2 -22 7 -65 10 -95 7
-68 12 -101 26 -164 7 -26 13 -74 14 -105 1 -31 12 -81 23 -111 11 -30 23 -75
27 -100 3 -25 8 -56 10 -70 2 -14 7 -65 11 -115 10 -131 9 -130 54 -140 16 -4
44 -20 61 -36 17 -16 34 -29 38 -29 15 0 80 77 86 103 8 31 15 33 56 11 17 -8
49 -16 72 -16 34 0 45 5 68 33 15 19 33 54 40 79 7 25 19 57 27 71 13 23 12
29 -2 57 -9 17 -16 38 -16 46 0 35 89 63 148 47 16 -5 54 -28 85 -52 l55 -43
-15 -31 c-9 -16 -30 -48 -48 -70 -61 -76 -68 -101 -30 -115 14 -5 28 -17 31
-25 7 -18 55 -45 93 -51 40 -8 41 -9 55 -98 7 -45 26 -76 46 -76 8 0 30 -9 48
-20 36 -22 45 -60 13 -60 -10 0 -29 -11 -42 -25 -29 -30 -36 -31 -44 -6 -3 11
-12 22 -20 24 -10 5 -20 -21 -40 -106 -32 -140 -60 -226 -95 -297 -40 -79 -68
-106 -121 -114 -24 -4 -91 -21 -149 -39 -92 -28 -119 -32 -222 -32 -107 0
-118 2 -141 23 -41 39 -47 93 -41 392 3 151 6 293 7 315 3 49 -6 70 -39 92
-35 22 -39 12 -42 -94 -3 -101 -8 -133 -28 -171 -8 -15 -14 -36 -14 -47 0 -11
-9 -55 -19 -98 -17 -67 -18 -87 -8 -139 l11 -60 -33 -27 c-30 -25 -32 -30 -20
-48 11 -18 8 -36 -21 -127 -19 -58 -39 -106 -45 -106 -20 0 -38 47 -32 79 5
23 3 31 -7 31 -9 0 -18 -21 -24 -60 -6 -34 -20 -72 -32 -87 -11 -14 -20 -37
-20 -51 0 -36 -17 -16 -23 28 -3 19 -8 55 -12 80 -7 48 -28 86 -43 76 -5 -3
-14 -31 -21 -62 -7 -32 -22 -77 -32 -102 -11 -24 -19 -52 -19 -62 0 -30 -19
-34 -29 -6 -9 22 -31 35 -69 42 -11 2 -26 -16 -82 -102 -20 -30 -62 -62 -100
-75 -36 -13 -39 -36 -5 -49 18 -7 25 -17 25 -35 0 -39 -27 -85 -51 -85 -25 0
-35 25 -19 45 14 17 12 22 -10 25 -37 6 -49 -1 -55 -32 -9 -45 -32 -78 -53
-78 -9 0 -23 -4 -31 -9 -12 -8 -7 -21 27 -73 37 -57 51 -88 38 -88 -3 0 -16 4
-30 10 -32 12 -33 3 -5 -51 11 -23 19 -42 17 -43 -2 -1 -24 -14 -49 -29 -53
-30 -79 -74 -72 -122 3 -23 -3 -43 -22 -71 -29 -43 -48 -57 -85 -61 -58 -8
-62 -24 -12 -46 27 -11 27 -11 -12 -15 -38 -3 -99 16 -144 44 -21 14 -21 16
-7 38 9 13 13 31 9 41 -5 11 -1 22 8 29 24 18 40 54 27 61 -36 23 -172 -34
-177 -73 -5 -30 -29 -39 -46 -17 -11 16 -15 16 -42 2 -36 -19 -64 -7 -64 28 0
31 -29 47 -94 50 -78 3 -110 -9 -140 -55 -36 -55 -65 -79 -128 -104 -55 -22
-123 -66 -168 -108 -14 -13 -33 -29 -41 -36 -21 -16 -120 -42 -182 -47 -27 -3
-52 -7 -56 -10 -13 -7 -58 32 -64 55 -3 12 1 23 11 29 15 9 15 11 -2 30 -26
29 -119 47 -143 28 -19 -14 -6 -27 28 -27 31 0 49 -24 32 -41 -11 -11 -135 -1
-128 10 2 4 0 13 -5 21 -7 11 -11 11 -24 1 -9 -8 -16 -20 -16 -29 0 -11 -8
-13 -39 -8 -28 4 -61 -1 -115 -19 -42 -14 -84 -25 -92 -25 -9 0 -29 13 -45 30
-33 32 -45 31 -96 -7 -20 -15 -33 -33 -33 -47 0 -36 -21 -56 -48 -45 l-24 9
23 37 23 36 -35 -7 c-19 -4 -49 -10 -67 -13 -27 -5 -33 -10 -29 -24 7 -25 4
-24 -31 9 -17 15 -41 36 -54 47 -14 11 -39 41 -57 68 -47 70 -71 45 -31 -33
26 -52 25 -66 -7 -96 -16 -14 -28 -36 -28 -47 0 -33 -29 -32 -89 2 -30 17 -71
31 -92 33 -30 2 -41 8 -57 36 l-19 33 -38 -41 c-52 -56 -64 -56 -202 6 -54 24
-104 44 -112 44 -7 0 -21 9 -31 20 -10 11 -23 19 -29 18 -6 -1 -27 3 -46 9
-19 6 -47 14 -61 17 -15 3 -46 22 -69 41 -23 19 -48 35 -55 35 -8 0 -28 18
-46 39 -40 50 -54 56 -80 30 -25 -25 -75 -47 -124 -55 -30 -4 -41 0 -77 30
-23 20 -45 36 -50 36 -4 0 -8 18 -8 39 0 22 -4 42 -10 46 -11 7 -3 30 23 68
10 16 18 29 16 31 -49 37 -125 86 -133 86 -7 0 -19 13 -29 29 -20 34 -79 65
-124 63 -42 -2 -52 15 -16 29 35 13 19 24 -50 33 -62 9 -96 22 -104 42 -10 26
12 38 38 20 35 -24 53 -21 38 5 -6 12 -13 36 -16 53 -3 17 -6 33 -8 35 -2 1
-22 -12 -44 -30 -44 -35 -45 -35 -69 9 -56 101 -70 132 -76 170 -4 24 -15 60
-25 80 -24 47 -39 104 -43 162 -3 44 -2 45 25 42 39 -4 34 14 -11 37 -52 27
-102 128 -75 155 4 4 14 -8 23 -25 8 -18 20 -34 26 -36 15 -5 28 28 15 37 -11
6 -19 38 -20 77 -1 12 -13 34 -28 47 l-27 25 27 29 c15 15 27 33 27 39 0 7 9
14 19 18 10 3 21 15 24 25 7 28 39 26 35 -2 -2 -17 4 -23 30 -30 18 -5 32 -15
32 -23 0 -8 3 -15 8 -15 4 0 6 70 4 156 -1 86 1 160 4 165 3 6 14 1 24 -11 18
-20 18 -20 25 17 4 20 15 53 25 73 27 54 32 135 9 156 -25 22 -86 20 -119 -5
-33 -24 -54 -21 -108 13 -49 31 -62 19 -33 -28 18 -29 19 -35 6 -39 -8 -4 -27
5 -43 18 -30 25 -56 18 -45 -11 3 -8 -1 -14 -10 -14 -10 0 -18 13 -22 34 -11
55 -4 71 28 68 19 -3 27 1 27 12 0 9 -1 17 -2 19 -2 2 5 14 14 29 16 24 16 27
0 48 -54 71 -57 73 -80 61 -19 -10 -22 -9 -22 6 0 10 9 29 20 43 27 34 25 40
-10 40 -35 0 -35 2 -15 34 15 23 15 24 -19 30 -40 8 -49 23 -30 57 21 39 17
68 -11 79 -14 5 -28 18 -31 27 -20 63 -100 150 -145 160 -15 3 -31 15 -37 27
-15 30 -49 135 -57 176 -11 58 -36 130 -45 130 -5 0 -10 -10 -12 -22 -2 -19
-9 -23 -39 -22 -46 1 -92 33 -113 78 -14 29 -16 65 -13 220 l3 185 -43 -5
c-50 -6 -57 8 -14 31 38 19 43 50 15 100 -13 22 -26 63 -29 90 -3 28 -11 64
-16 81 -7 24 -4 44 16 98 25 65 38 117 50 186 3 19 8 47 11 63 4 18 -1 39 -15
62 -19 33 -19 35 -2 35 16 0 18 5 12 33 -4 17 -8 35 -9 40 -1 4 -2 12 -2 19 0
6 -9 3 -20 -7 -11 -10 -20 -22 -20 -28 0 -5 -6 -23 -14 -40 -8 -18 -18 -45
-23 -62 -7 -22 -17 -31 -36 -33 l-26 -3 1 98 c1 54 0 107 -3 118 -2 11 2 20 9
21 6 1 18 2 26 3 8 0 17 18 21 39 4 20 21 60 40 87 18 28 34 58 36 68 6 27 23
24 33 -5 8 -23 3 -35 -29 -83 -32 -45 -36 -58 -25 -65 17 -10 44 2 85 40 17
15 47 39 68 53 34 23 36 27 20 36 -17 9 -16 12 9 38 25 26 26 30 13 60 -22 52
-94 85 -137 62 -26 -14 -13 -29 27 -29 47 0 65 -9 65 -32 0 -17 -5 -19 -34
-15 -51 7 -112 -24 -120 -61 -7 -28 -39 -52 -72 -52 -8 0 -19 -11 -24 -25 -5
-13 -21 -35 -36 -47 -15 -13 -46 -50 -71 -83 -24 -33 -94 -114 -157 -180 -164
-175 -166 -176 -195 -220 -15 -22 -40 -65 -55 -95 -33 -64 -63 -90 -116 -97
-32 -5 -39 -2 -44 15 -4 12 -17 24 -29 28 -43 13 -43 13 32 223 45 126 48 143
26 135 -8 -4 -15 -3 -15 1 0 10 60 124 83 158 21 31 17 57 -9 57 -20 0 -94
-75 -94 -95 0 -7 -10 -39 -22 -70 -18 -48 -23 -54 -29 -37 -4 11 -16 25 -26
30 -20 12 -22 6 37 142 18 41 39 87 46 101 13 25 12 27 -8 32 -21 6 -91 -23
-103 -42 -11 -19 -125 46 -136 77 -9 23 8 53 25 46 8 -3 25 0 37 7 13 7 38 12
55 11 39 -2 58 19 51 55 -5 27 10 83 22 83 4 0 22 26 41 58 77 131 97 161 166
247 39 50 82 101 94 115 13 14 37 40 54 59 l31 34 -29 -6 c-47 -8 -60 1 -41
29 8 13 14 24 13 25 -2 0 -11 2 -21 4 -11 2 -21 6 -24 8 -5 6 49 48 97 74 19
11 62 35 95 53 83 46 105 65 132 111 12 22 42 64 66 92 46 54 72 96 64 103 -7
7 -76 -48 -177 -139 -52 -48 -96 -81 -98 -74 -1 7 7 39 18 71 35 102 27 121
-62 141 l-51 11 57 29 c60 30 77 46 58 53 -17 5 -15 63 3 103 19 44 41 70 85
99 19 13 37 25 39 27 9 6 -24 35 -68 58 -25 14 -55 39 -66 55 -11 17 -23 30
-26 30 -9 0 -136 -461 -200 -730 -19 -79 -45 -134 -172 -360 -83 -148 -200
-365 -251 -465 -68 -133 -69 -143 -53 -330 8 -88 10 -109 22 -210 3 -27 8 -77
10 -110 8 -100 16 -188 20 -220 25 -199 25 -668 0 -945 -2 -19 -6 -90 -10
-156 l-7 -121 117 -299 c63 -165 120 -308 125 -319 5 -11 65 -164 134 -340
188 -485 293 -745 338 -837 32 -67 168 -287 198 -321 3 -4 65 -9 138 -11 72
-3 139 -9 149 -14 11 -6 57 -103 115 -239 53 -125 152 -356 218 -513 287 -674
403 -963 402 -1000 -2 -61 -106 -313 -171 -413 -26 -40 -92 -135 -147 -212
-55 -77 -103 -147 -108 -155 -12 -24 92 90 142 155 26 33 75 96 110 140 82
101 179 250 225 342 20 39 41 74 46 77 5 3 17 -27 26 -67 19 -79 30 -100 86
-167 21 -25 45 -65 54 -90 8 -24 22 -51 29 -60 7 -8 18 -31 25 -50 21 -62 39
-82 70 -75 19 4 32 1 41 -10 8 -9 27 -23 42 -31 23 -12 27 -18 18 -29 -14 -17
0 -46 34 -68 22 -15 25 -15 37 -1 7 9 15 28 17 42 4 32 32 79 65 110 l24 23
44 -26 c24 -14 69 -37 99 -51 144 -66 325 -161 344 -182 11 -12 36 -32 54 -43
37 -24 42 -55 14 -89 -20 -24 -24 -23 -56 24 -12 18 -13 18 -34 -4 -15 -16
-35 -25 -64 -26 -24 -2 -46 -3 -50 -3 -5 -1 -8 -14 -8 -31 0 -34 11 -37 53
-15 19 10 34 11 45 5 9 -5 30 -11 45 -15 22 -4 26 -9 18 -19 -9 -11 1 -14 51
-19 63 -6 88 -22 88 -56 0 -11 -5 -9 -16 7 -19 28 -60 29 -94 2 l-25 -20 33 0
c18 0 45 -6 60 -14 15 -7 48 -14 73 -14 54 -1 88 -13 151 -53 68 -44 101 -138
43 -123 -42 10 -49 -6 -17 -40 43 -46 78 -109 64 -114 -7 -2 -12 -16 -12 -31
0 -25 -4 -28 -32 -27 -24 1 -34 -4 -36 -18 -2 -10 1 -22 7 -26 10 -6 15 -23
20 -77 3 -35 122 -100 195 -107 35 -4 56 1 91 19 25 14 45 21 45 16 0 -9 -35
-61 -166 -243 -44 -62 -93 -134 -107 -159 l-27 -46 57 -45 c32 -25 106 -77
164 -116 59 -39 109 -77 111 -84 3 -7 6 -39 7 -71 l2 -57 -68 6 c-37 3 -129
17 -203 31 -245 46 -254 45 -316 -40 -89 -121 -152 -251 -132 -275 16 -19 25
-14 37 20 11 30 12 30 25 13 13 -19 15 -18 52 6 62 40 92 48 209 54 270 14
356 29 375 66 6 10 16 19 23 19 19 0 157 -73 183 -97 21 -20 23 -25 12 -50
-19 -43 -93 -154 -133 -198 -137 -152 -281 -415 -374 -686 -58 -166 -147 -558
-167 -732 -3 -28 -7 -54 -9 -57 -1 -3 -6 -34 -10 -70 -4 -36 -8 -72 -10 -80
-1 -8 -6 -44 -10 -80 -3 -36 -8 -76 -10 -90 -2 -14 -6 -54 -10 -90 -3 -36 -8
-81 -10 -100 -3 -19 -7 -66 -11 -105 -3 -38 -7 -88 -9 -110 -9 -91 -15 -154
-21 -230 -3 -44 -7 -98 -9 -120 -2 -22 -6 -78 -10 -125 -3 -47 -8 -110 -10
-140 -3 -30 -7 -89 -10 -130 -7 -99 -15 -214 -20 -270 -2 -25 -7 -92 -10 -150
-4 -58 -9 -127 -11 -155 -2 -27 -6 -90 -9 -140 -3 -49 -7 -112 -10 -140 -2
-27 -7 -95 -10 -150 -4 -55 -8 -123 -10 -151 -2 -28 -7 -100 -10 -160 -3 -60
-8 -139 -10 -176 -3 -50 -1 -69 11 -79 27 -22 42 9 49 101 4 47 8 101 10 120
2 19 6 80 10 135 3 55 8 121 11 147 4 44 11 151 19 298 2 36 6 103 9 150 3 47
8 123 11 170 5 82 8 119 20 295 3 44 8 91 10 105 2 14 7 61 11 105 4 44 8 89
9 100 12 116 18 174 20 195 1 14 6 57 9 95 4 39 9 86 11 105 2 19 7 68 10 108
4 41 8 81 10 91 2 10 6 50 10 90 3 40 8 80 10 89 1 9 6 40 9 67 12 87 17 119
21 145 3 14 7 43 11 65 3 22 12 65 21 95 8 30 23 89 33 130 10 41 25 95 34
120 8 25 16 63 16 85 1 38 1 39 16 20 13 -17 16 -18 24 -5 5 8 10 23 10 33 0
10 5 27 11 39 l11 20 14 -21 c19 -27 34 -27 34 -1 0 28 45 48 71 32 17 -11 23
-9 43 13 25 27 36 24 36 -11 0 -36 15 -36 35 -1 10 18 32 48 50 67 77 82 149
233 230 478 25 75 47 144 48 152 13 70 43 122 112 196 80 84 142 181 156 242
4 20 11 105 14 187 8 217 17 245 50 160 20 -53 60 -105 81 -105 18 0 34 41 34
88 0 44 23 82 50 82 26 0 53 -29 45 -49 -4 -9 -14 -45 -22 -81 -43 -184 -47
-190 -105 -149 -16 12 -31 20 -32 18 -3 -3 -102 -324 -110 -354 -1 -5 -13 -43
-25 -83 -12 -40 -31 -103 -41 -140 -10 -37 -28 -94 -40 -127 -29 -81 -87 -306
-99 -380 -5 -33 -11 -69 -14 -80 -2 -11 2 -51 10 -90 13 -71 16 -85 28 -162 4
-24 12 -43 18 -43 7 0 2 -8 -11 -18 l-23 -18 27 -23 c27 -23 27 -24 8 -38 -25
-18 -19 -49 13 -77 21 -18 24 -26 15 -42 -8 -15 -5 -36 14 -88 23 -66 23 -71
7 -95 -9 -14 -17 -42 -19 -63 -2 -36 -1 -38 26 -38 23 0 28 -5 32 -31 4 -26 2
-30 -14 -26 -23 7 -31 -6 -35 -62 -1 -25 -8 -58 -14 -73 -9 -21 -8 -35 1 -57
9 -24 9 -34 -4 -59 -23 -44 -20 -61 20 -128 29 -47 33 -62 25 -77 -6 -9 -22
-51 -35 -92 -27 -86 -26 -88 54 -100 25 -4 49 -10 53 -15 13 -12 -2 -50 -19
-50 -8 0 -17 -7 -20 -15 -8 -20 13 -45 32 -38 22 8 17 -27 -11 -72 -32 -52
-32 -73 2 -86 14 -5 32 -17 39 -27 12 -16 13 -16 19 0 12 31 1 52 -28 53 -34
2 -44 12 -29 27 11 11 80 14 90 4 2 -3 6 -20 8 -38 7 -56 33 -134 53 -159 l19
-24 11 28 c6 16 9 32 6 37 -3 5 -1 11 4 14 5 4 12 -3 16 -14 9 -28 19 -25 31
8 l10 27 13 -25 c17 -30 18 -105 1 -125 -10 -12 -10 -15 3 -15 8 0 20 7 28 16
14 17 73 50 67 37 -2 -4 -10 -20 -17 -36 -18 -35 -10 -42 28 -23 43 23 46 20
21 -21 l-22 -37 30 -27 c17 -15 39 -26 49 -24 10 2 21 4 26 4 4 1 12 13 18 29
l11 27 12 -45 c11 -42 76 -154 84 -145 2 2 5 25 8 52 6 81 14 103 34 103 23 0
50 -36 50 -67 0 -13 4 -23 9 -23 8 0 19 -29 28 -74 9 -51 25 -30 31 40 4 50 8
58 38 77 19 12 34 25 34 28 0 3 -18 5 -41 5 -37 -1 -42 2 -55 33 -11 27 -11
32 -1 28 24 -9 33 6 64 99 23 69 31 110 31 165 l0 73 33 11 c40 14 47 30 23
56 -17 19 -17 20 4 26 18 4 20 8 11 25 -7 13 -7 23 -2 27 26 16 37 61 21 86
-10 16 7 148 20 153 23 7 11 22 -18 22 -27 0 -29 2 -19 19 10 14 9 23 -4 41
-20 28 -7 50 28 50 38 0 42 42 7 83 -13 14 -13 23 -3 60 7 23 22 58 33 78 l20
36 -23 53 c-19 45 -20 53 -8 61 12 6 14 24 11 89 -3 53 0 85 8 95 8 9 8 19 1
32 -5 11 -6 24 -2 31 21 35 -24 232 -79 342 -31 62 -138 210 -167 231 -86 65
-178 264 -247 535 -33 130 -41 190 -40 294 0 84 28 259 45 291 7 14 28 18 100
20 85 4 92 6 115 32 13 15 21 33 19 40 -2 6 -6 26 -8 42 -3 17 -8 47 -12 68
-6 29 -4 36 6 33 8 -3 46 -7 86 -10 97 -8 222 -36 288 -67 45 -20 180 -51 228
-51 29 -1 89 2 133 7 55 5 88 4 102 -4 16 -9 26 -8 41 1 15 9 24 8 46 -6 15
-10 30 -27 32 -37 12 -45 34 -9 27 42 -14 88 -236 401 -282 399 -4 -1 -16 -15
-27 -33 -26 -42 -91 -57 -245 -59 -118 -2 -166 3 -195 19 -14 8 -9 16 33 54
52 47 94 82 137 113 34 26 61 49 113 98 33 31 41 45 36 62 -11 36 -146 216
-294 391 -83 99 -122 157 -119 177 1 7 -2 22 -6 32 -7 15 1 28 39 63 108 99
397 321 646 498 246 173 313 229 479 396 141 141 160 163 246 284 87 122 108
156 185 300 97 183 129 216 150 159 10 -25 53 -215 63 -279 3 -16 10 -50 15
-75 6 -25 13 -56 16 -70 13 -66 49 -220 65 -280 6 -19 16 -62 24 -95 8 -33 49
-193 90 -355 42 -162 79 -311 82 -330 3 -19 12 -60 20 -90 12 -46 39 -177 60
-290 3 -14 7 -36 10 -50 2 -14 7 -40 10 -59 3 -19 11 -43 17 -54 11 -21 12
-20 38 11 25 30 50 42 50 25 0 -5 4 -34 9 -65 6 -31 13 -105 16 -165 4 -59 8
-124 10 -143 2 -19 7 -82 10 -140 9 -141 12 -183 19 -263 3 -37 8 -97 11 -135
3 -37 8 -85 10 -107 2 -22 7 -67 10 -100 11 -114 16 -150 20 -180 3 -16 7 -48
11 -70 5 -37 17 -99 29 -153 3 -13 12 -40 20 -60 17 -44 32 -125 40 -207 3
-33 8 -82 10 -110 3 -27 7 -70 10 -95 2 -25 6 -72 10 -105 3 -33 8 -87 11
-120 3 -33 7 -76 9 -95 2 -19 7 -71 10 -115 3 -44 8 -91 10 -105 3 -21 10
-107 20 -235 4 -54 16 -180 20 -205 2 -14 6 -65 10 -115 3 -49 8 -106 10 -125
2 -19 7 -70 10 -113 3 -43 8 -95 10 -115 4 -45 14 -154 21 -242 2 -36 7 -83 9
-105 4 -37 9 -98 20 -245 7 -97 16 -214 20 -265 4 -47 9 -116 20 -280 5 -70
13 -200 20 -330 5 -78 15 -374 20 -565 2 -69 4 -135 4 -147 l1 -23 530 0 530
0 0 35 c0 50 38 65 209 80 41 4 84 11 97 15 40 16 114 23 226 22 103 0 110 -1
195 -41 88 -40 89 -41 235 -45 107 -4 166 -10 215 -25 37 -11 93 -23 123 -26
30 -3 362 -8 738 -11 l684 -5 -7 583 c-3 321 -8 759 -10 973 -3 215 -7 665
-10 1000 -12 1290 -21 1826 -30 1856 -6 19 -72 57 -108 63 -33 5 -75 -13 -82
-35 -7 -21 -27 -27 -23 -6 4 19 -11 67 -21 67 -5 0 -12 -18 -16 -40 -7 -40
-24 -55 -26 -22 -2 56 -17 77 -59 86 -17 3 -50 24 -75 47 -42 39 -46 41 -59
24 -9 -13 -29 -19 -65 -21 -29 -1 -59 -8 -67 -15 -13 -10 -13 -8 -4 15 14 38
6 46 -37 34 -21 -6 -54 -10 -73 -9 -125 5 -143 8 -152 25 -9 15 -19 17 -77 11
-36 -3 -96 -16 -132 -29 l-67 -22 -36 33 c-39 36 -71 41 -102 18 -27 -20 -39
-19 -51 7 -7 17 -19 22 -54 24 -76 3 -147 23 -219 60 -25 13 -54 22 -65 20
-11 -2 -36 -6 -57 -10 -35 -6 -68 10 -68 34 0 4 -14 13 -30 20 -23 10 -37 10
-55 2 -22 -10 -23 -15 -15 -37 13 -34 13 -35 -5 -35 -39 0 -11 -43 117 -181
132 -144 148 -163 139 -172 -16 -16 -49 3 -112 64 -60 58 -84 70 -91 47 -2 -6
-12 -9 -21 -5 -12 5 -15 14 -11 36 6 28 4 29 -22 26 -95 -12 -134 -8 -160 16
-45 42 -49 58 -20 88 31 32 33 51 6 51 -13 0 -20 7 -20 19 0 15 -16 24 -67 41
-127 41 -138 47 -147 74 -10 27 -16 30 -78 41 -21 3 -44 13 -52 21 -9 8 -39
17 -68 20 -29 2 -62 9 -73 14 -11 5 -41 17 -66 28 -26 11 -64 35 -85 54 -60
52 -70 59 -99 64 -18 3 -34 -1 -47 -13 -20 -17 -21 -17 -50 17 -26 31 -28 40
-23 80 5 39 2 51 -21 85 -15 22 -38 56 -51 75 -13 19 -41 51 -61 70 -20 20
-41 43 -47 52 -5 10 -23 20 -39 22 -35 6 -44 15 -27 25 29 19 -17 81 -65 87
-59 6 -147 87 -163 149 -14 55 -32 64 -77 40 -38 -21 -54 -14 -36 15 17 28 15
31 -13 26 -20 -4 -28 0 -35 20 -6 14 -18 24 -29 24 -33 0 -109 37 -121 59 -6
12 -16 21 -22 21 -20 0 -98 41 -98 52 0 12 -21 39 -93 121 -74 85 -167 210
-167 225 0 6 6 12 13 12 16 0 211 -110 215 -122 2 -4 7 -8 12 -8 5 0 44 -22
87 -48 125 -78 233 -135 233 -123 0 6 -3 11 -8 11 -4 0 -19 11 -33 24 -27 25
-267 204 -541 404 l-147 107 -67 135 c-37 74 -94 191 -126 260 -32 69 -63 133
-69 144 -43 76 -156 456 -172 579 -5 37 -3 40 33 56 22 10 103 37 181 62 l142
44 70 145 c168 351 176 368 182 432 10 100 13 129 20 198 3 36 8 81 10 100 2
19 7 69 11 110 3 41 7 82 9 90 2 8 6 53 10 99 4 47 8 92 10 100 1 9 6 52 9 96
4 44 9 91 11 105 2 14 6 57 10 95 3 39 8 88 10 110 3 22 7 60 9 85 20 210 12
188 116 330 95 131 191 294 287 490 99 202 217 481 293 690 23 63 45 125 50
137 9 23 7 157 -4 208 -16 73 -60 267 -78 340 -10 44 -23 98 -28 120 -5 22
-21 85 -36 140 -14 55 -30 116 -34 135 -32 144 -100 323 -157 416 -57 94 -85
153 -99 210 -16 71 -11 200 13 309 27 124 31 187 27 380 -2 110 -6 211 -8 225
-2 14 -8 102 -11 195 -4 94 -9 193 -10 220 -2 28 -4 106 -5 175 l-2 125 56 85
c69 104 106 179 141 292 l26 85 -50 103 c-67 138 -231 381 -396 590 -62 78
-278 270 -450 398 -214 159 -293 210 -354 229 -55 16 -61 16 -61 -1z m-6559
-2129 c-13 -13 -26 -3 -16 12 3 6 11 8 17 5 6 -4 6 -10 -1 -17z m7220 -560
c-8 -8 -11 -2 -11 19 0 40 14 54 18 19 2 -15 -1 -32 -7 -38z m-7561 -288 c0
-6 -4 -7 -10 -4 -5 3 -10 11 -10 16 0 6 5 7 10 4 6 -3 10 -11 10 -16z m620
-329 c0 -5 -7 -10 -16 -10 -8 0 -12 5 -9 10 3 6 10 10 16 10 5 0 9 -4 9 -10z
m-500 -36 c0 -8 -4 -14 -10 -14 -5 0 -10 9 -10 21 0 11 5 17 10 14 6 -3 10
-13 10 -21z m774 -96 c-1 -13 -3 -27 -3 -31 -1 -5 -5 -5 -11 -2 -5 3 -10 25
-10 48 1 37 2 40 14 25 7 -10 12 -28 10 -40z m6084 21 c9 -14 9 -19 0 -19 -13
0 -48 29 -48 41 0 14 36 -2 48 -22z m-6043 -428 c3 -5 2 -12 -3 -15 -5 -3 -9
1 -9 9 0 17 3 19 12 6z m20 -131 c3 -5 -3 -10 -14 -10 -12 0 -21 5 -21 10 0 6
6 10 14 10 8 0 18 -4 21 -10z m-25 -101 c0 -5 -7 -6 -15 -3 -8 4 -15 13 -15
21 0 13 3 13 15 3 8 -7 15 -16 15 -21z m6295 -201 c21 -55 26 -91 29 -218 3
-117 -6 -182 -30 -218 -22 -34 -36 -16 -38 50 -1 33 -6 53 -13 53 -20 0 -22 8
-24 135 -2 69 -5 129 -7 133 -2 4 -10 3 -18 -4 -11 -9 -14 -7 -15 12 -1 13 -3
39 -5 57 -5 39 11 42 23 5 l9 -27 19 32 c27 44 49 41 70 -10z m-6290 -47 c3
-6 -4 -15 -15 -21 -16 -8 -20 -8 -20 3 0 25 23 36 35 18z m7260 -11 c9 -27 -3
-60 -19 -54 -10 4 -15 54 -7 72 4 9 21 -2 26 -18z m-7935 -165 c70 -36 85 -65
58 -117 -38 -77 -168 -183 -168 -138 0 22 -31 8 -46 -22 l-16 -32 36 -33 c20
-18 36 -37 36 -42 0 -15 -51 -51 -70 -51 -22 0 -40 21 -46 55 -5 27 -15 58
-54 155 -40 104 -23 210 35 210 13 0 27 5 30 11 21 33 144 35 205 4z m8006
-65 c7 -25 19 -58 28 -75 9 -16 16 -37 16 -45 0 -8 14 -35 30 -60 35 -52 38
-76 11 -83 -28 -7 -58 18 -80 67 -10 24 -35 61 -54 83 -45 49 -59 82 -45 109
38 69 77 71 94 4z m-837 -166 c-7 -8 -18 -36 -24 -61 l-12 -46 -32 47 c-44 63
-39 80 24 86 53 5 65 -1 44 -26z m-138 -37 c-1 -4 -1 -14 -1 -23 0 -8 -4 -12
-10 -9 -13 8 -13 48 1 43 6 -2 10 -7 10 -11z m-14 -359 c35 -39 54 -75 68
-128 13 -51 13 -53 -11 -75 -31 -28 -74 -38 -93 -20 -11 10 -11 20 -1 50 11
33 9 84 -5 154 -9 45 10 53 42 19z m700 -101 c19 -42 -29 -124 -51 -88 -4 5
-9 31 -13 57 -5 41 -4 47 10 41 9 -3 19 -2 22 3 10 16 21 11 32 -13z m-6052
-239 c8 -21 11 -38 6 -38 -15 0 -53 68 -46 81 9 14 21 2 40 -43z m-77 4 c7 -9
12 -30 10 -46 -3 -33 -28 -49 -28 -18 0 12 -11 29 -25 40 -35 28 -34 56 3 48
15 -4 33 -15 40 -24z m6282 -31 c0 -3 -5 -13 -10 -21 -8 -12 -11 -13 -19 -1
-5 7 -6 22 -4 32 4 15 8 17 19 8 8 -6 14 -14 14 -18z m-7643 -16 c15 -17 23
-39 23 -63 0 -20 11 -72 25 -114 25 -78 28 -92 40 -180 l7 -47 77 1 c71 2 82
0 127 -28 82 -52 181 -104 197 -104 25 0 45 -33 75 -125 64 -192 105 -432 81
-477 -18 -35 -61 -68 -89 -69 -113 -4 -179 7 -255 42 -73 35 -122 85 -159 164
-19 40 -60 184 -81 283 -2 9 -11 49 -20 87 -10 39 -18 75 -19 80 -12 52 -33
112 -61 175 -32 72 -77 231 -90 316 -3 23 -1 54 5 69 10 26 14 27 53 22 28 -4
49 -14 64 -32z m6683 15 c0 -5 -4 -10 -10 -10 -5 0 -10 5 -10 10 0 6 5 10 10
10 6 0 10 -4 10 -10z m-6162 -223 c16 -33 21 -146 7 -148 -11 -1 -45 41 -49
62 -2 8 -6 26 -11 42 -18 67 25 103 53 44z m812 -12 c0 -8 -4 -15 -9 -15 -13
0 -22 16 -14 24 11 11 23 6 23 -9z m4660 -982 c0 -22 -2 -25 -10 -13 -13 20
-13 40 0 40 6 0 10 -12 10 -27z m-135 -93 c-3 -5 -13 -10 -21 -10 -8 0 -12 5
-9 10 3 6 13 10 21 10 8 0 12 -4 9 -10z m-4065 -286 c0 -8 -4 -14 -10 -14 -5
0 -10 9 -10 21 0 11 5 17 10 14 6 -3 10 -13 10 -21z m60 -51 c0 -13 -3 -13
-15 -3 -8 7 -15 19 -15 27 0 13 3 13 15 3 8 -7 15 -19 15 -27z m3858 -65 c-2
-6 -10 -14 -16 -16 -7 -2 -10 2 -6 12 7 18 28 22 22 4z m-3518 -174 c0 -25
-18 -15 -29 17 -6 18 -11 35 -11 38 1 12 40 -42 40 -55z m-355 -23 c-8 -13
-35 -15 -35 -2 0 5 8 11 18 13 21 5 26 2 17 -11z m305 -1 c0 -5 -4 -10 -9 -10
-6 0 -13 5 -16 10 -3 6 1 10 9 10 9 0 16 -4 16 -10z m3238 -46 c-4 -3 -19 -4
-35 -2 l-28 4 25 11 c23 10 51 1 38 -13z m-128 -22 c0 -13 -12 -22 -22 -16
-10 6 -1 24 13 24 5 0 9 -4 9 -8z m-3450 -128 c0 -8 -5 -12 -10 -9 -6 4 -8 11
-5 16 9 14 15 11 15 -7z m1990 -1029 c0 -8 -6 -12 -14 -9 -8 3 -12 12 -9 20 6
17 23 9 23 -11z m-200 -130 c7 -8 8 -15 2 -15 -5 0 -15 7 -22 15 -7 8 -8 15
-2 15 5 0 15 -7 22 -15z m-171 -155 c0 -10 -6 -8 -19 9 -11 12 -17 27 -14 33
7 11 33 -21 33 -42z m-388 -266 c12 -14 11 -16 -5 -13 -11 2 -21 10 -24 17 -5
17 13 15 29 -4z m-1061 -98 c0 -18 -30 -30 -43 -17 -9 9 11 23 41 30 1 1 2 -5
2 -13z m1000 -816 c0 -5 -4 -10 -9 -10 -6 0 -13 5 -16 10 -3 6 1 10 9 10 9 0
16 -4 16 -10z m1068 -828 c17 -11 40 -187 38 -292 -1 -78 -3 -85 -22 -88 -22
-3 -96 26 -129 51 -20 15 -20 16 10 47 17 18 45 39 64 47 l34 14 -7 92 c-4 51
-9 102 -13 114 -5 24 3 29 25 15z m-278 -459 c0 -3 -26 -54 -59 -112 -70 -127
-79 -156 -52 -171 11 -5 36 -10 55 -10 31 0 36 -3 36 -24 0 -43 -105 -96 -190
-96 -42 0 -70 26 -70 65 0 17 132 226 166 261 6 7 22 25 35 41 33 39 79 66 79
46z m5095 -124 c4 -6 5 -12 2 -15 -7 -7 -37 7 -37 17 0 13 27 11 35 -2z m165
-75 c0 -8 -5 -12 -10 -9 -6 4 -8 11 -5 16 9 14 15 11 15 -7z m1714 -146 c-9
-14 -23 2 -17 18 4 12 8 13 14 3 4 -7 5 -17 3 -21z m-1164 -215 c0 -13 -3 -13
-15 -3 -8 7 -12 16 -9 21 8 13 24 1 24 -18z m55 -43 c-6 -9 -9 -9 -16 1 -10
17 0 34 13 21 6 -6 7 -16 3 -22z m-5835 -2229 c0 -12 -29 -41 -41 -41 -12 0
-11 6 3 30 13 20 38 27 38 11z m103 -226 c-5 -16 -33 -21 -33 -7 0 13 22 32
31 26 5 -2 6 -11 2 -19z m174 -67 c-3 -8 -6 -5 -6 6 -1 11 2 17 5 13 3 -3 4
-12 1 -19z m161 -67 c3 -8 -1 -12 -9 -9 -7 2 -15 10 -17 17 -3 8 1 12 9 9 7
-2 15 -10 17 -17z m-198 -17 c0 -14 -12 -19 -23 -8 -9 9 4 35 14 28 5 -3 9
-12 9 -20z m270 -125 c0 -6 -4 -7 -10 -4 -5 3 -10 11 -10 16 0 6 5 7 10 4 6
-3 10 -11 10 -16z m-8 -111 c-15 -15 -24 -6 -16 16 5 12 10 14 17 7 8 -8 8
-14 -1 -23z m-56 -55 c-10 -10 -19 5 -10 18 6 11 8 11 12 0 2 -7 1 -15 -2 -18z"/>
<path d="M4925 9988 c7 -40 41 -112 61 -128 23 -20 18 9 -15 86 -32 76 -55 97
-46 42z"/>
<path d="M5317 15979 c-39 -22 -62 -111 -32 -122 22 -9 53 23 69 71 12 38 12
43 -3 51 -10 6 -23 5 -34 0z"/>
<path d="M5177 15863 c-19 -19 16 -39 47 -27 13 5 14 9 5 20 -12 15 -41 19
-52 7z"/>
<path d="M5017 15728 c-19 -15 -40 -99 -28 -111 18 -18 65 25 84 75 3 10 0 24
-9 33 -19 18 -25 19 -47 3z"/>
<path d="M6355 15595 c-30 -13 -30 -13 -4 -14 14 -1 34 6 45 14 25 19 1 19
-41 0z"/>
<path d="M6230 15580 c0 -5 7 -10 16 -10 8 0 12 5 9 10 -3 6 -10 10 -16 10 -5
0 -9 -4 -9 -10z"/>
<path d="M4964 15508 c-42 -84 -46 -106 -22 -119 24 -13 166 -5 181 10 12 12
-35 84 -78 116 -19 15 -32 31 -29 36 3 5 -2 9 -10 9 -9 0 -27 -23 -42 -52z"/>
<path d="M6190 15487 l-25 -10 24 -5 c13 -2 28 1 33 6 15 15 -4 21 -32 9z"/>
<path d="M6270 15430 c-20 -7 -16 -8 22 -9 26 -1 50 4 53 9 7 12 -38 12 -75 0z"/>
<path d="M9541 15427 c-6 -8 -8 -16 -5 -20 10 -9 34 4 34 19 0 18 -14 18 -29
1z"/>
<path d="M6045 15393 c-40 -11 -171 -65 -234 -96 -42 -21 -70 -42 -80 -61 -9
-16 -41 -61 -71 -100 -95 -122 -133 -175 -282 -386 -168 -239 -259 -373 -280
-415 -9 -16 -29 -44 -45 -61 -16 -16 -49 -57 -73 -90 -24 -32 -63 -81 -87
-108 -24 -27 -41 -51 -38 -54 3 -3 11 0 17 6 19 19 28 14 43 -20 13 -32 12
-34 -18 -65 -28 -30 -30 -48 -6 -48 23 0 10 -19 -20 -29 -36 -12 -61 -40 -47
-53 4 -4 38 -7 74 -6 77 3 103 -7 83 -31 -8 -9 -27 -20 -44 -24 -35 -9 -53
-32 -44 -56 6 -14 15 -16 54 -10 57 8 80 19 111 51 27 30 46 26 50 -10 4 -30
4 -30 146 -29 83 1 102 7 73 23 -22 13 -13 29 17 29 29 0 50 24 66 75 7 22 19
50 27 61 14 22 30 69 38 116 9 51 57 193 70 208 36 43 52 133 44 246 -2 22 7
45 29 75 18 24 32 48 32 54 0 16 31 42 54 46 11 3 23 18 30 39 12 38 65 80
101 80 13 0 28 7 35 15 7 8 22 15 35 15 29 0 35 8 25 34 -11 30 13 79 47 97
21 11 27 11 30 2 8 -21 23 -14 23 10 0 39 28 65 88 83 76 23 83 31 50 55 l-28
20 21 41 c12 23 64 83 117 134 l95 92 -40 11 c-112 30 -245 46 -288 34z m-725
-1229 c0 -8 -4 -14 -10 -14 -5 0 -10 9 -10 21 0 11 5 17 10 14 6 -3 10 -13 10
-21z m22 -351 c23 -21 23 -33 -2 -33 -16 0 -40 26 -40 44 0 12 24 6 42 -11z
m-107 -23 c4 -6 -12 -10 -39 -10 -25 0 -46 5 -46 10 0 6 18 10 39 10 22 0 43
-4 46 -10z"/>
<path d="M9604 15389 c-8 -14 18 -31 30 -19 9 9 0 30 -14 30 -5 0 -12 -5 -16
-11z"/>
<path d="M9730 15267 c0 -17 17 -73 32 -103 6 -12 7 -31 3 -43 -4 -13 3 -36
20 -65 16 -28 26 -58 25 -78 -3 -52 -1 -58 18 -58 9 0 40 -15 67 -33 64 -43
82 -49 89 -32 13 34 -18 95 -38 75 -16 -16 -26 -12 -26 10 0 10 -6 23 -13 27
-7 4 -23 24 -34 43 -12 20 -33 46 -46 58 -22 21 -24 27 -15 69 8 37 7 51 -8
78 -20 38 -74 76 -74 52z"/>
<path d="M9834 15257 c-9 -25 76 -130 92 -114 8 8 -38 86 -65 111 -18 17 -21
17 -27 3z"/>
<path d="M4950 15204 c-65 -34 -70 -40 -70 -92 0 -59 21 -92 60 -92 23 0 32 8
51 48 14 26 38 56 56 67 40 24 38 42 -6 72 -39 27 -33 27 -91 -3z"/>
<path d="M10047 15003 c-17 -17 -6 -71 20 -99 27 -29 28 -29 31 -6 2 12 8 23
13 23 5 1 14 2 19 3 13 1 10 14 -13 54 -18 30 -53 43 -70 25z"/>
<path d="M10274 14896 c-9 -24 0 -61 16 -62 34 -2 38 -5 49 -36 23 -62 54
-118 62 -112 17 10 9 57 -22 118 -47 93 -90 131 -105 92z"/>
<path d="M10150 14861 c0 -6 5 -13 10 -16 6 -3 10 1 10 9 0 9 -4 16 -10 16 -5
0 -10 -4 -10 -9z"/>
<path d="M10297 14823 c-2 -4 0 -19 6 -33 l10 -25 5 24 c4 24 -12 50 -21 34z"/>
<path d="M10186 14765 c-15 -8 -34 -15 -42 -15 -28 0 -23 -20 11 -36 38 -18
75 -58 75 -80 0 -8 4 -14 8 -14 4 0 14 -15 20 -34 7 -19 19 -37 27 -40 18 -6
20 -37 4 -53 -16 -16 4 -70 40 -110 34 -39 41 -41 41 -8 0 29 13 26 82 -21 60
-41 95 -50 117 -29 31 27 41 19 27 -23 -16 -44 -10 -61 35 -92 23 -17 33 -19
44 -10 10 9 15 7 20 -10 9 -27 41 -22 37 5 -1 11 -8 30 -14 43 -9 18 -9 28 1
43 15 25 5 43 -59 106 -41 41 -60 47 -60 18 0 -8 -6 -12 -14 -9 -11 4 -13 20
-9 69 4 59 3 65 -27 98 -40 46 -96 81 -116 73 -16 -6 -16 -31 -1 -94 6 -21 4
-22 -11 -10 -33 25 -62 63 -72 93 -7 18 -33 45 -66 69 -39 28 -54 45 -52 59 4
27 -11 30 -46 12z m360 -267 c-3 -13 -6 -31 -6 -40 0 -10 -4 -18 -10 -18 -11
0 -14 63 -3 73 14 15 25 6 19 -15z m-211 -56 c0 -31 -19 -28 -23 4 -3 18 0 25
10 22 7 -3 13 -14 13 -26z"/>
<path d="M10296 14705 c4 -8 10 -15 15 -15 5 0 9 7 9 15 0 8 -7 15 -15 15 -9
0 -12 -6 -9 -15z"/>
<path d="M10800 14706 c0 -16 28 -42 36 -33 7 6 -18 47 -28 47 -5 0 -8 -6 -8
-14z"/>
<path d="M10390 14298 c0 -15 49 -78 61 -78 13 0 0 51 -19 73 -17 19 -42 23
-42 5z"/>
<path d="M9468 14114 c-4 -3 -24 -8 -45 -11 -21 -3 -51 -12 -66 -20 -37 -19
-67 -24 -67 -12 0 22 -58 8 -86 -21 -32 -33 -49 -37 -58 -15 -8 23 -41 18
-102 -16 -42 -24 -60 -42 -75 -74 -21 -44 -29 -49 -117 -76 -23 -7 -66 -28
-94 -46 -46 -30 -61 -35 -140 -40 -125 -8 -173 -23 -174 -55 -1 -14 -4 -30 -8
-37 -9 -14 -50 -7 -82 14 -31 20 -41 19 -47 -6 -5 -19 -7 -20 -31 -4 -14 9
-32 15 -41 13 -14 -3 -14 -5 -1 -24 9 -12 31 -29 50 -38 39 -18 96 -100 114
-161 6 -22 14 -67 17 -100 5 -38 14 -68 26 -81 11 -11 31 -64 44 -118 40 -153
81 -243 110 -241 55 5 281 98 350 146 22 15 81 69 130 120 98 100 176 156 264
190 45 18 77 23 166 23 61 0 133 -6 160 -12 28 -7 53 -13 57 -13 4 0 44 -15
89 -34 141 -59 242 -155 237 -223 -2 -32 8 -46 79 -119 42 -42 83 -69 83 -54
0 6 -17 37 -39 69 -21 31 -49 77 -62 101 -13 24 -30 54 -36 66 -27 47 -143
162 -191 188 -56 30 -185 61 -302 73 -87 8 -250 8 -300 -1 -19 -3 -47 -8 -62
-10 -48 -9 -83 -26 -103 -52 -16 -19 -30 -25 -59 -25 -73 0 -73 40 -1 120 35
38 73 64 172 114 157 80 199 95 294 103 102 8 129 14 129 30 0 28 44 37 208
41 188 5 212 8 212 29 0 23 -17 26 -41 6 -24 -19 -24 -19 -61 2 -21 11 -38 24
-38 28 0 5 -22 15 -48 23 -27 8 -69 24 -93 36 -42 22 -56 26 -104 29 -12 0
-40 13 -63 28 l-42 27 32 21 c42 26 21 31 -69 15 -72 -12 -84 -9 -60 18 22 25
26 65 7 69 -9 2 -19 1 -22 -3z m-523 -820 c-11 -8 -26 -12 -33 -9 -8 3 -19 5
-25 6 -21 1 27 18 53 18 24 0 24 0 5 -15z"/>
<path d="M11777 13929 c-3 -12 -1 -33 4 -48 10 -25 11 -25 24 -7 8 10 18 15
24 11 20 -12 11 24 -11 45 -27 25 -34 25 -41 -1z"/>
<path d="M11606 13901 c-4 -5 -2 -12 3 -15 5 -4 12 -2 15 3 4 5 2 12 -3 15 -5
4 -12 2 -15 -3z"/>
<path d="M6460 13812 c0 -3 15 -18 33 -34 l32 -28 -120 3 c-66 2 -130 1 -143
-2 -22 -6 -22 -7 18 -45 43 -41 43 -57 -2 -63 -49 -7 -200 -90 -266 -145 -18
-15 -41 -28 -51 -28 -19 0 -61 -39 -61 -57 0 -7 -15 -22 -32 -34 -57 -40 -62
-59 -18 -59 17 0 30 -4 30 -9 0 -5 -33 -33 -72 -62 -40 -29 -79 -58 -85 -65
-16 -16 -17 -46 -2 -61 9 -9 2 -28 -25 -76 -43 -78 -46 -115 -10 -151 25 -25
26 -26 6 -26 -12 0 -35 -13 -52 -30 -17 -16 -35 -30 -40 -30 -6 0 -10 -4 -10
-10 0 -5 13 -10 30 -10 43 0 64 -38 61 -110 -1 -25 -2 -25 -82 -22 l-82 4 6
-36 c7 -43 43 -93 81 -113 30 -16 26 -30 -12 -38 -48 -9 -53 -35 -6 -35 13 0
24 -3 24 -6 0 -3 -25 -36 -55 -72 -77 -93 -72 -112 15 -52 43 30 152 67 230
80 87 14 130 32 148 61 12 19 11 20 -8 14 -36 -11 -230 -26 -252 -19 -26 8
-22 33 8 44 14 6 72 10 128 10 l103 0 46 58 c115 144 169 178 312 196 87 11
122 15 170 20 28 3 79 8 115 12 36 4 79 8 95 9 48 4 188 17 215 21 14 1 99 5
190 9 91 3 174 9 185 12 11 3 31 19 46 34 22 23 33 28 60 24 79 -11 152 -15
170 -10 36 12 55 74 65 215 9 133 15 178 26 223 10 40 9 55 -4 90 -15 42 -15
47 -4 100 21 98 25 127 18 127 -4 0 -23 -5 -42 -11 -62 -18 -74 -19 -130 -9
-59 10 -113 16 -229 25 -85 7 -130 23 -178 65 -28 25 -40 30 -67 25 -19 -4
-54 0 -82 9 -27 8 -74 17 -105 20 -31 3 -80 15 -109 26 -29 11 -55 19 -57 16
-2 -2 3 -18 12 -36 21 -41 12 -50 -23 -22 -15 12 -40 29 -57 39 -31 17 -105
35 -105 25z m-490 -391 c0 -12 -20 -25 -27 -18 -7 7 6 27 18 27 5 0 9 -4 9 -9z
m763 -35 c94 -18 154 -51 223 -125 44 -47 45 -64 2 -49 -18 6 -37 14 -43 18
-27 20 -120 31 -242 29 -144 -1 -171 -8 -343 -86 -76 -35 -279 -154 -333 -196
-39 -30 -113 -57 -134 -50 -18 6 -16 33 3 54 14 16 15 23 4 48 -19 47 -10 72
36 96 23 12 69 49 102 82 59 59 111 87 187 100 17 2 57 18 90 35 33 16 87 35
120 42 62 14 259 14 328 2z m56 -201 c44 -8 101 -32 101 -43 0 -4 19 -19 43
-32 49 -27 77 -49 77 -62 0 -5 -8 -7 -17 -4 -37 11 -262 30 -363 30 -71 0 -96
-4 -150 -27 -102 -43 -151 -70 -169 -94 -10 -12 -37 -27 -62 -33 -24 -7 -56
-18 -71 -26 -26 -13 -28 -13 -28 5 0 10 18 42 41 71 71 90 218 183 339 214 54
13 189 14 259 1z m-1009 -284 c0 -12 -28 -22 -34 -12 -3 5 -3 11 1 15 9 9 33
7 33 -3z m56 -148 c-10 -10 -19 5 -10 18 6 11 8 11 12 0 2 -7 1 -15 -2 -18z"/>
<path d="M10130 13750 c0 -5 5 -10 10 -10 6 0 10 5 10 10 0 6 -4 10 -10 10 -5
0 -10 -4 -10 -10z"/>
<path d="M4505 13699 c-10 -29 1 -35 25 -14 25 23 25 35 1 35 -11 0 -23 -9
-26 -21z"/>
<path d="M10120 13684 c-50 -16 -76 -37 -66 -53 10 -16 52 -14 87 5 17 8 37
13 45 10 7 -3 18 4 24 14 9 17 7 22 -15 30 -15 6 -27 10 -28 9 -1 -1 -22 -7
-47 -15z"/>
<path d="M5268 13639 c-31 -17 -19 -30 12 -14 17 9 30 18 30 20 0 8 -24 5 -42
-6z"/>
<path d="M4460 13621 c0 -5 5 -13 10 -16 6 -3 10 -2 10 4 0 5 -4 13 -10 16 -5
3 -10 2 -10 -4z"/>
<path d="M10234 13586 c-8 -22 2 -46 21 -46 19 0 20 34 0 50 -12 10 -16 9 -21
-4z"/>
<path d="M9885 13581 c-3 -5 -1 -12 4 -15 13 -8 42 4 35 15 -7 12 -31 12 -39
0z"/>
<path d="M10157 13563 c-13 -12 -7 -33 8 -33 8 0 15 9 15 20 0 20 -11 26 -23
13z"/>
<path d="M9927 13534 c-10 -10 12 -45 56 -89 54 -54 107 -120 107 -132 0 -6
15 -30 33 -54 19 -24 41 -57 49 -73 15 -29 16 -29 27 -8 10 18 6 33 -20 89
-17 38 -49 87 -71 110 -26 27 -39 47 -35 57 8 21 18 20 59 -7 37 -26 91 -47
119 -47 10 0 43 -9 74 -21 56 -21 74 -49 33 -49 -19 -1 -16 -4 15 -21 20 -11
37 -23 37 -26 0 -4 -12 -17 -27 -29 l-27 -21 22 -12 c12 -6 33 -23 48 -36 27
-25 49 -32 58 -17 2 4 -4 32 -15 62 -11 30 -22 79 -26 108 -5 43 -12 58 -38
81 -18 16 -36 39 -40 52 -16 57 -28 79 -45 79 -10 0 -20 -3 -22 -7 -1 -5 -19
-21 -38 -37 -32 -26 -38 -28 -100 -22 -80 7 -149 27 -188 55 -33 23 -36 24
-45 15z"/>
<path d="M4460 13460 c0 -5 5 -10 10 -10 6 0 10 5 10 10 0 6 -4 10 -10 10 -5
0 -10 -4 -10 -10z"/>
<path d="M5700 13259 c-19 -8 -21 -12 -11 -19 18 -11 41 -2 41 16 0 8 -1 14
-2 13 -2 0 -14 -5 -28 -10z"/>
<path d="M9394 13230 c-61 -12 -193 -65 -352 -141 -150 -72 -219 -113 -205
-122 11 -7 115 3 193 18 11 2 50 7 87 10 37 4 84 8 103 10 19 2 73 7 120 10
120 9 173 13 265 22 108 10 275 10 358 -1 58 -7 67 -6 67 8 0 27 -202 139
-300 167 -25 7 -52 15 -60 17 -27 9 -234 10 -276 2z"/>
<path d="M10705 13185 c-22 -8 -69 -17 -105 -21 -74 -7 -91 -17 -69 -39 33
-34 165 -15 227 32 53 40 24 55 -53 28z"/>
<path d="M10300 13010 c0 -10 58 -24 145 -36 22 -2 72 -9 110 -15 141 -20 218
-23 213 -8 -2 7 -15 14 -29 15 -31 2 -117 13 -194 24 -33 5 -94 12 -135 16
-41 3 -83 8 -92 10 -10 1 -18 -1 -18 -6z"/>
<path d="M10572 12859 c2 -7 33 -29 68 -48 69 -38 80 -24 14 20 -49 33 -88 46
-82 28z"/>
<path d="M9845 12751 c-24 -10 -117 -19 -280 -27 -272 -13 -346 -20 -401 -39
l-34 -12 27 -12 c16 -7 51 -16 78 -19 83 -11 397 -7 451 6 83 18 157 50 194
81 34 30 34 30 10 30 -14 0 -34 -4 -45 -8z"/>
<path d="M10561 12709 c-9 -26 -13 -29 -31 -19 -29 15 -25 0 11 -40 l30 -35
-6 28 c-5 26 -4 27 16 17 12 -7 48 -29 81 -50 61 -40 96 -44 78 -10 -14 26
-141 140 -155 140 -7 0 -18 -14 -24 -31z"/>
<path d="M9924 12655 c-16 -12 -16 -14 -3 -15 9 0 22 7 29 15 16 19 0 19 -26
0z"/>
<path d="M9330 12540 c0 -5 8 -11 18 -11 9 -1 27 -3 40 -4 34 -3 26 12 -9 19
-42 8 -49 8 -49 -4z"/>
<path d="M6600 12459 c-25 -4 -58 -10 -75 -13 -16 -3 -50 -7 -75 -10 -74 -9
-103 -16 -150 -37 l-45 -20 25 -19 c14 -10 40 -22 59 -25 19 -4 62 -20 94 -37
38 -19 70 -28 86 -25 103 18 406 92 448 108 55 22 81 43 64 53 -30 19 -350 37
-431 25z"/>
<path d="M5529 12418 c-7 -24 -5 -38 6 -38 14 0 27 25 18 34 -6 6 -22 8 -24 4z"/>
<path d="M5940 12270 c0 -5 5 -10 10 -10 6 0 10 5 10 10 0 6 -4 10 -10 10 -5
0 -10 -4 -10 -10z"/>
<path d="M8558 12228 c-43 -21 -58 -33 -58 -49 0 -26 55 -81 143 -143 37 -26
110 -89 161 -139 88 -85 96 -97 112 -155 14 -54 23 -67 53 -86 46 -30 134
-108 191 -171 25 -27 69 -74 99 -105 57 -58 422 -493 479 -570 131 -178 162
-213 177 -199 3 4 -1 19 -9 35 -26 53 -48 128 -60 204 -3 19 -8 46 -10 59 -5
22 -3 23 43 18 26 -3 53 -2 60 3 21 12 -28 40 -70 40 -42 0 -81 32 -61 52 7 7
12 16 12 21 0 14 -200 207 -215 207 -25 0 -28 23 -5 40 22 17 23 18 4 24 -11
3 -38 25 -59 47 -38 41 -57 40 -35 0 7 -14 7 -21 1 -21 -13 0 -41 53 -41 77 0
10 -21 38 -48 63 -26 25 -61 61 -77 80 -17 19 -60 55 -97 78 -37 24 -70 52
-73 62 -3 11 -21 28 -39 39 -30 19 -92 81 -138 139 -10 12 -29 22 -43 22 -21
0 -29 9 -45 46 -11 25 -40 70 -65 100 -25 31 -52 68 -62 84 -9 16 -27 31 -40
35 -13 3 -23 11 -23 18 0 15 -49 54 -82 65 -16 6 -40 0 -80 -20z"/>
<path d="M5620 12174 c0 -8 5 -12 10 -9 6 3 10 10 10 16 0 5 -4 9 -10 9 -5 0
-10 -7 -10 -16z"/>
<path d="M7466 12074 c-47 -47 -94 -105 -106 -129 -31 -64 -37 -137 -15 -186
l18 -40 40 68 c48 82 127 247 127 266 0 8 11 35 25 61 38 72 8 59 -89 -40z"/>
<path d="M5520 12110 c0 -5 9 -10 20 -10 11 0 20 5 20 10 0 6 -9 10 -20 10
-11 0 -20 -4 -20 -10z"/>
<path d="M7525 11840 c-14 -28 -37 -83 -51 -123 -15 -40 -43 -95 -65 -123 -21
-29 -45 -67 -53 -85 l-14 -34 -2 40 c-6 125 -8 157 -13 161 -7 7 -52 -93 -72
-164 -14 -47 -25 -66 -44 -75 -15 -7 -34 -29 -44 -50 -13 -29 -30 -43 -72 -63
-46 -22 -56 -32 -65 -62 -6 -22 -26 -50 -51 -72 -63 -54 -46 -68 26 -21 69 45
198 168 219 209 8 15 26 34 40 42 14 7 26 17 26 22 0 22 33 4 56 -32 24 -36
74 -198 74 -239 0 -17 0 -17 205 -20 l71 -1 69 -66 c96 -90 200 -181 223 -193
74 -39 122 -14 240 124 52 61 113 128 136 149 46 44 141 92 201 101 63 9 110
17 165 29 50 12 110 46 123 73 25 49 52 191 48 253 -1 14 -61 59 -61 46 0 -9
-113 35 -145 57 -16 11 -60 49 -97 85 l-66 65 -91 -12 c-50 -6 -101 -16 -114
-21 -12 -5 -38 -11 -58 -15 -21 -3 -43 -12 -50 -21 -35 -42 -129 -59 -314 -59
-77 1 -102 6 -178 34 -55 21 -104 48 -132 73 l-44 39 -26 -51z"/>
<path d="M10916 11651 c-3 -5 1 -11 9 -15 9 -3 15 0 15 9 0 16 -16 20 -24 6z"/>
<path d="M10980 11568 c0 -32 17 -46 26 -23 4 9 0 24 -10 33 -15 15 -16 14
-16 -10z"/>
<path d="M10867 11513 c-13 -13 -7 -32 8 -27 8 4 15 12 15 20 0 15 -12 19 -23
7z"/>
<path d="M10965 11490 c-3 -5 3 -10 15 -10 12 0 18 5 15 10 -3 6 -10 10 -15
10 -5 0 -12 -4 -15 -10z"/>
<path d="M10970 11361 c-6 -12 -6 -22 -1 -26 10 -6 14 -1 24 28 9 23 -10 22
-23 -2z"/>
<path d="M10897 11281 c3 -12 10 -21 15 -21 13 0 6 32 -9 37 -7 3 -9 -3 -6
-16z"/>
<path d="M10959 11223 c-5 -15 -8 -57 -5 -93 2 -36 5 -76 6 -90 2 -24 2 -24
11 5 13 43 23 131 20 183 -1 30 -19 28 -32 -5z"/>
<path d="M12114 11135 c-7 -18 12 -45 32 -45 15 0 18 18 8 44 -8 20 -33 21
-40 1z"/>
<path d="M5932 11054 c1 -9 9 -19 16 -22 9 -3 13 2 10 14 -1 9 -9 19 -16 22
-9 3 -13 -2 -10 -14z"/>
<path d="M10885 11019 c-4 -6 -3 -15 3 -21 6 -6 11 -4 15 6 7 18 -9 31 -18 15z"/>
<path d="M6710 10870 c0 -5 5 -10 10 -10 6 0 10 5 10 10 0 6 -4 10 -10 10 -5
0 -10 -4 -10 -10z"/>
<path d="M6744 10824 c-49 -38 -63 -45 -88 -40 l-30 6 24 -25 c28 -30 13 -33
-43 -10 -20 8 -53 15 -74 15 l-38 0 37 -33 37 -32 -29 -17 c-23 -13 -30 -24
-30 -47 0 -16 5 -33 10 -36 8 -5 7 -11 -1 -21 -12 -15 -49 -2 -49 17 0 6 -10
24 -21 41 -16 22 -19 32 -10 41 17 17 13 37 -9 37 -14 0 -28 -16 -46 -52 -15
-29 -30 -55 -34 -58 -11 -7 -48 -81 -55 -111 -4 -17 -1 -30 10 -39 20 -16 28
-7 43 46 12 40 54 94 75 94 6 0 7 -3 4 -7 -4 -3 -1 -13 5 -21 22 -26 35 -78
26 -102 -13 -36 -4 -34 46 10 26 22 56 40 67 40 25 0 24 -17 -2 -25 -26 -9
-21 -41 6 -37 11 2 38 5 60 9 22 3 42 7 44 9 2 2 -8 19 -23 39 -21 27 -23 35
-12 35 9 0 31 21 51 48 34 47 44 92 26 121 -14 22 -2 42 18 31 14 -7 23 2 49
50 18 32 29 61 24 64 -5 3 -36 -15 -68 -40z m-79 -163 c10 -17 -12 -21 -25 -6
-10 12 -10 15 3 15 9 0 18 -4 22 -9z m-59 -32 c7 -12 -15 -31 -28 -23 -4 3 -8
12 -8 20 0 17 26 19 36 3z"/>
<path d="M6595 10819 c-4 -6 -5 -13 -2 -16 7 -7 27 6 27 18 0 12 -17 12 -25
-2z"/>
<path d="M11510 10710 c0 -28 7 -64 15 -81 14 -25 18 -28 36 -18 11 6 28 27
36 47 l15 37 -38 32 c-53 46 -64 43 -64 -17z"/>
<path d="M8503 10608 c-18 -30 -28 -35 -104 -53 -90 -21 -87 -20 -137 -29 -18
-4 -53 -13 -78 -22 -26 -9 -54 -12 -67 -8 -28 9 -81 6 -132 -7 -22 -6 -47 -13
-55 -15 -8 -2 -42 -10 -75 -18 -87 -21 -164 -27 -207 -15 -28 7 -46 6 -70 -4
-18 -8 -51 -17 -73 -21 -22 -4 -80 -26 -128 -49 l-89 -41 -56 15 c-55 14 -142
12 -158 -4 -4 -4 5 -20 19 -35 15 -16 27 -31 27 -34 0 -3 -26 -15 -58 -27 -45
-16 -64 -30 -83 -58 -17 -26 -37 -42 -67 -53 -55 -19 -68 -40 -44 -71 10 -13
29 -50 41 -82 31 -75 52 -81 123 -35 29 19 89 54 133 78 44 24 152 87 240 140
230 139 335 187 505 230 96 24 109 27 255 45 180 23 507 23 616 -1 13 -3 47
-9 74 -14 28 -5 127 -27 220 -50 320 -77 408 -93 500 -94 54 -1 60 1 63 21 4
27 -18 69 -56 108 -24 24 -49 35 -124 53 -52 12 -103 22 -114 22 -10 0 -55 18
-98 40 -43 22 -90 40 -103 40 -13 0 -48 -11 -77 -25 -29 -13 -62 -23 -73 -21
-12 3 -43 8 -70 12 -26 3 -55 8 -63 9 -8 2 -40 6 -70 10 -85 10 -112 15 -155
26 -37 10 -93 42 -106 62 -3 5 -15 -6 -26 -25z m-865 -210 c-5 -15 -58 -24
-58 -9 0 11 17 19 43 20 11 1 17 -4 15 -11z"/>
<path d="M8105 10581 c-3 -6 -4 -15 -1 -20 8 -13 48 -1 43 13 -5 15 -34 20
-42 7z"/>
<path d="M8037 10563 c-12 -11 -8 -23 8 -23 8 0 15 7 15 15 0 16 -12 20 -23 8z"/>
<path d="M12107 10503 c-4 -3 -7 -12 -7 -20 0 -11 4 -11 20 -3 11 6 18 15 15
21 -7 11 -19 12 -28 2z"/>
<path d="M6600 10427 c0 -7 6 -22 14 -33 21 -28 43 -5 24 25 -14 23 -38 28
-38 8z"/>
<path d="M6636 10352 c-3 -6 1 -15 8 -21 8 -7 17 -8 20 -3 3 6 -1 15 -8 21 -8
7 -17 8 -20 3z"/>
<path d="M6061 10296 c-7 -8 -8 -17 -3 -20 6 -3 15 1 21 8 7 8 8 17 3 20 -6 3
-15 -1 -21 -8z"/>
<path d="M6860 10216 c0 -9 5 -16 10 -16 6 0 10 4 10 9 0 6 -4 13 -10 16 -5 3
-10 -1 -10 -9z"/>
<path d="M8946 10168 c-24 -14 -4 -36 40 -44 19 -3 37 -10 40 -15 7 -11 44
-12 44 -1 0 28 -97 75 -124 60z"/>
<path d="M8697 10144 c-1 -1 -24 -4 -52 -7 -27 -3 -59 -8 -70 -10 -63 -14
-347 -57 -385 -58 -25 -1 -55 3 -68 10 -12 6 -82 13 -162 16 -77 2 -149 9
-160 15 -15 8 -28 6 -55 -9 -24 -12 -50 -18 -81 -16 -29 2 -60 -3 -87 -16 -23
-10 -60 -19 -82 -19 -51 -2 -62 -7 -114 -52 l-43 -37 22 -36 c15 -24 20 -44
16 -60 -5 -20 -3 -25 12 -25 33 0 119 -48 141 -79 12 -16 35 -32 51 -36 18 -4
37 -19 50 -40 24 -39 44 -49 72 -34 12 6 38 8 60 5 30 -5 53 0 106 23 97 43
234 77 388 96 22 2 69 9 104 14 36 4 103 9 150 10 115 3 125 5 126 27 2 38 4
42 33 47 20 4 31 14 35 32 7 29 22 32 48 8 10 -9 21 -13 26 -9 4 4 -6 19 -21
32 l-28 24 41 0 c48 0 72 11 120 57 19 18 43 33 52 33 28 0 31 20 6 41 -47 42
-81 53 -166 54 -45 1 -83 0 -85 -1z m-1136 -357 c-8 -8 -11 -7 -11 4 0 9 3 19
7 23 4 4 9 2 11 -4 3 -7 -1 -17 -7 -23z m149 -36 c0 -10 -40 -19 -58 -13 -25
8 -11 22 23 22 19 0 35 -4 35 -9z m109 -10 c8 -5 9 -11 3 -15 -5 -3 -15 1 -22
9 -14 16 -3 20 19 6z m-46 -32 c3 -13 1 -19 -6 -16 -15 5 -22 37 -9 37 5 0 12
-9 15 -21z"/>
<path d="M11095 10060 c-7 -12 11 -40 26 -40 14 0 10 26 -5 39 -10 9 -16 9
-21 1z"/>
<path d="M10774 9879 c-3 -6 -1 -16 5 -22 8 -8 11 -5 11 11 0 24 -5 28 -16 11z"/>
<path d="M10860 9871 c-14 -27 -13 -34 6 -27 10 4 25 -1 35 -10 24 -21 39 -10
30 23 -9 34 -55 43 -71 14z"/>
<path d="M7450 9741 c0 -6 5 -13 10 -16 6 -3 10 1 10 9 0 9 -4 16 -10 16 -5 0
-10 -4 -10 -9z"/>
<path d="M10685 9700 c-7 -12 2 -30 16 -30 12 0 12 27 0 35 -5 3 -12 1 -16 -5z"/>
<path d="M10575 9621 c-6 -11 9 -23 19 -14 9 9 7 23 -3 23 -6 0 -12 -4 -16 -9z"/>
<path d="M10400 9612 c0 -18 12 -42 21 -42 14 0 10 26 -6 40 -9 8 -15 8 -15 2z"/>
<path d="M10472 9578 c6 -17 36 -34 45 -24 4 4 -1 14 -11 22 -24 17 -39 18
-34 2z"/>
<path d="M10365 9510 c-3 -5 1 -10 9 -10 9 0 16 5 16 10 0 6 -4 10 -9 10 -6 0
-13 -4 -16 -10z"/>
<path d="M6395 9410 c-8 -13 15 -24 27 -12 6 6 4 11 -6 15 -8 3 -18 2 -21 -3z"/>
<path d="M10374 9409 c-3 -6 3 -20 14 -32 10 -12 24 -31 31 -42 10 -18 11 -17
7 10 -2 17 -7 38 -11 47 -8 21 -32 31 -41 17z"/>
<path d="M10330 9342 c0 -10 22 -32 32 -32 15 0 8 15 -12 28 -11 7 -20 9 -20
4z"/>
<path d="M10220 9157 c0 -7 14 -21 30 -30 31 -19 38 -13 17 14 -17 21 -47 32
-47 16z"/>
<path d="M8447 8763 c-10 -9 -9 -23 2 -23 5 0 11 7 15 15 5 15 -5 20 -17 8z"/>
<path d="M6038 7048 c-28 -37 -128 -205 -128 -215 0 -4 -6 -14 -13 -22 -8 -9
-31 -59 -52 -111 -53 -132 -162 -360 -182 -382 -9 -10 -26 -18 -39 -18 -15 0
-29 -12 -43 -35 -11 -20 -27 -38 -36 -41 -8 -4 -15 -17 -15 -29 0 -32 -78
-146 -117 -170 -18 -11 -40 -36 -49 -55 -10 -19 -48 -81 -86 -137 -37 -56 -71
-115 -74 -132 -7 -35 -18 -39 -32 -14 -8 14 -14 8 -35 -33 -14 -27 -40 -69
-56 -94 -35 -51 -37 -62 -16 -80 33 -27 -8 -34 -68 -11 -26 10 -47 -2 -47 -26
0 -17 -5 -16 -40 2 -25 13 -30 13 -30 1 0 -7 7 -19 15 -26 8 -7 15 -18 15 -25
0 -19 -34 -45 -58 -45 -20 0 -21 -2 -10 -21 11 -17 10 -22 -7 -35 -12 -9 -30
-12 -45 -9 -14 4 -25 7 -25 8 0 1 -9 20 -20 41 -21 42 -52 64 -41 29 4 -12 -7
-36 -34 -72 -22 -29 -40 -60 -40 -68 0 -8 -13 -26 -30 -40 -16 -13 -30 -30
-30 -36 0 -6 -16 -25 -35 -43 -20 -18 -35 -42 -36 -55 -2 -60 -21 -88 -46 -67
-10 8 -25 2 -60 -21 l-48 -31 -9 25 c-6 14 -14 25 -18 25 -18 0 -19 -29 -3
-54 20 -31 17 -31 -29 -9 -34 16 -37 16 -56 -2 -28 -25 -25 -35 9 -35 32 0 56
-22 47 -45 -9 -24 -61 -18 -96 11 -30 26 -31 26 -45 8 -8 -11 -15 -22 -16 -26
-5 -25 -4 -35 9 -55 12 -19 11 -23 -8 -36 -17 -12 -30 -13 -57 -5 -19 5 -37 8
-39 6 -2 -2 -5 -21 -8 -42 -3 -22 -9 -43 -14 -48 -13 -13 -45 8 -66 41 -8 14
-25 37 -36 51 l-21 25 6 -35 c12 -78 12 -107 0 -143 -7 -20 -9 -39 -5 -42 10
-6 44 1 69 14 29 16 41 14 50 -11 7 -20 9 -18 15 17 10 52 23 75 42 75 30 0
-2 -108 -41 -140 -15 -12 -19 -12 -31 5 -12 17 -16 17 -28 5 -24 -24 -29 -65
-11 -80 14 -11 18 -10 31 9 21 29 54 24 73 -11 9 -15 13 -29 10 -32 -2 -3 -36
-8 -74 -11 -166 -14 -186 -17 -242 -46 -44 -23 -71 -24 -99 -5 -11 8 -48 26
-84 40 -115 47 -120 66 -27 113 l50 25 -29 24 c-36 29 -38 29 -58 0 -10 -16
-23 -24 -36 -21 -22 4 -22 4 -97 52 l-52 33 16 45 c16 49 34 55 40 14 7 -53
14 -68 36 -75 53 -19 64 -10 32 28 -24 29 -34 68 -16 68 5 0 14 -7 21 -15 13
-16 76 -20 98 -6 11 6 11 20 3 66 -14 76 -14 112 -1 99 6 -6 13 -21 15 -34 6
-33 55 -130 65 -130 15 0 32 30 37 65 5 36 -1 42 -27 26 -25 -17 -32 0 -10 24
18 19 21 32 18 68 -5 44 -4 45 19 36 12 -4 30 -6 38 -3 24 9 18 58 -10 84 -14
13 -25 33 -25 45 0 28 -29 113 -42 121 -6 4 -9 -25 -7 -77 3 -113 2 -117 -22
-124 -29 -9 -37 2 -13 19 18 14 18 15 -10 45 l-30 31 32 6 c18 4 32 10 32 14
0 3 -15 24 -33 45 l-33 38 -22 -51 c-21 -48 -21 -82 -1 -82 5 0 9 -9 9 -20 0
-20 -25 -38 -47 -34 -7 1 -19 2 -27 3 -11 1 -13 10 -9 36 8 48 -11 45 -39 -5
-14 -25 -32 -43 -48 -46 -53 -12 -60 -16 -60 -30 0 -8 -15 -23 -32 -34 -18
-11 -59 -49 -92 -85 -64 -71 -173 -158 -187 -149 -20 12 30 77 191 254 127
139 208 249 194 263 -12 12 -35 -6 -56 -44 -26 -47 -42 -49 -63 -9 -19 37 -39
38 -62 3 -26 -42 -33 -43 -77 -21 -23 12 -42 20 -43 19 -9 -5 -23 1 -23 9 0 5
11 12 25 16 14 4 24 11 22 18 -5 15 -97 34 -123 25 -26 -9 -43 1 -47 29 -5 31
-27 53 -27 26 0 -11 -14 -30 -30 -43 -35 -25 -54 -22 -110 15 -37 26 -69 31
-87 13 -14 -14 -23 0 -30 44 -3 18 -7 34 -9 36 -2 2 -31 -13 -66 -33 -39 -24
-70 -36 -83 -32 -89 23 -143 40 -160 52 -23 16 -55 18 -55 4 0 -6 -26 -10 -61
-9 -53 1 -64 -1 -79 -21 -13 -17 -29 -23 -71 -25 -30 -2 -71 -11 -92 -19 -20
-9 -37 -13 -37 -9 -1 5 -9 -2 -20 -15 l-19 -23 -36 26 c-26 21 -42 26 -62 21
-16 -4 -35 -8 -43 -10 -8 -1 -21 3 -28 11 -20 20 -53 16 -92 -11 -47 -31 -73
-38 -143 -38 -45 0 -64 -5 -78 -19 -15 -15 -24 -17 -39 -9 -15 8 -29 6 -58 -9
-21 -10 -64 -27 -97 -36 -45 -14 -123 -53 -136 -69 0 0 -3 -1128 -6 -2505 l-4
-2503 2303 5 c2197 6 2437 8 2536 22 48 7 51 17 22 74 -26 53 -39 139 -55 386
-3 39 -7 102 -10 140 -3 39 -7 124 -10 190 -3 66 -8 161 -10 210 -25 509 -43
1295 -60 2710 -9 723 -21 1132 -40 1400 -20 273 -23 565 -8 605 10 24 10 24
32 -18 19 -37 41 -55 41 -34 0 4 7 48 15 97 9 50 18 106 21 125 37 243 38 247
75 450 32 176 92 445 134 599 14 52 25 101 25 108 0 22 -17 14 -42 -19z m-458
-893 c0 -8 -9 -15 -20 -15 -22 0 -27 15 -7 23 21 9 27 7 27 -8z m-870 -924 c0
-17 -18 -21 -24 -6 -3 9 0 15 9 15 8 0 15 -4 15 -9z m-1674 -179 c8 -39 -8
-43 -43 -10 -25 24 -29 48 -11 66 17 17 45 -13 54 -56z m1154 -345 c0 -30 -10
-40 -27 -26 -20 18 -16 49 7 49 14 0 20 -7 20 -23z m148 -19 c-5 -15 -68 -24
-68 -9 0 12 18 19 48 20 15 1 22 -4 20 -11z m-89 -67 c-15 -5 -22 6 -14 19 6
9 10 9 16 -1 5 -8 4 -15 -2 -18z m-679 -282 c0 -5 -4 -9 -10 -9 -5 0 -10 7
-10 16 0 8 5 12 10 9 6 -3 10 -10 10 -16z m445 -709 c3 -6 -1 -13 -10 -16 -19
-8 -30 0 -20 15 8 14 22 14 30 1z m-1401 -89 c14 -1 -15 -31 -45 -47 -15 -7
-51 -16 -81 -19 l-53 -6 25 20 c14 11 39 23 57 27 18 3 37 12 43 19 6 7 19 12
28 10 9 -2 21 -4 26 -4z m2777 -3050 c20 -21 26 -51 10 -51 -5 0 -11 6 -14 14
-4 10 -16 13 -34 10 -166 -26 -183 -27 -183 -12 0 24 130 69 179 62 13 -2 32
-12 42 -23z m-32 -226 c-18 -18 -81 -30 -106 -21 -32 13 14 36 71 36 45 0 49
-2 35 -15z"/>
<path d="M6540 6855 c0 -8 5 -15 10 -15 6 0 10 7 10 15 0 8 -4 15 -10 15 -5 0
-10 -7 -10 -15z"/>
<path d="M6952 6601 c2 -7 7 -12 11 -12 12 1 9 15 -3 20 -7 2 -11 -2 -8 -8z"/>
<path d="M7000 6600 c0 -19 32 -60 46 -60 20 0 17 34 -4 53 -21 19 -42 22 -42
7z"/>
<path d="M5420 6508 c-118 -53 -310 -151 -310 -159 0 -6 3 -8 8 -6 4 3 68 34
143 70 137 66 213 107 194 106 -5 0 -21 -5 -35 -11z"/>
<path d="M7610 6240 c0 -5 9 -10 20 -10 11 0 20 5 20 10 0 6 -9 10 -20 10 -11
0 -20 -4 -20 -10z"/>
<path d="M7605 5909 c-4 -6 -3 -15 3 -21 6 -6 11 -4 15 6 7 18 -9 31 -18 15z"/>
<path d="M12870 5704 c14 -16 50 -38 50 -30 0 9 -43 46 -53 46 -5 0 -4 -7 3
-16z"/>
<path d="M12600 5671 c13 -26 49 -29 46 -3 -2 10 -13 18 -30 20 -25 3 -26 2
-16 -17z"/>
<path d="M14365 5215 c35 -16 74 -20 59 -5 -5 5 -27 12 -49 14 l-40 5 30 -14z"/>
<path d="M3797 5194 c-4 -4 -7 -14 -7 -23 0 -11 3 -12 11 -4 6 6 10 16 7 23
-2 6 -7 8 -11 4z"/>
<path d="M4500 5165 c0 -8 7 -15 15 -15 8 0 15 4 15 9 0 5 -7 11 -15 15 -9 3
-15 0 -15 -9z"/>
<path d="M14631 5156 c9 -10 179 -55 179 -47 0 7 -92 36 -150 47 -19 4 -32 4
-29 0z"/>
<path d="M3705 5109 c-11 -17 1 -21 15 -4 8 9 8 15 2 15 -6 0 -14 -5 -17 -11z"/>
<path d="M4390 5111 c0 -11 26 -22 34 -14 12 12 5 23 -14 23 -11 0 -20 -4 -20
-9z"/>
<path d="M3733 5024 c-3 -8 -1 -20 6 -27 8 -8 11 -4 11 16 0 30 -7 35 -17 11z"/>
<path d="M3957 4973 c-12 -11 -8 -23 8 -23 8 0 15 7 15 15 0 16 -12 20 -23 8z"/>
<path d="M13443 4945 c11 -7 25 -11 33 -8 22 8 6 23 -24 23 -25 -1 -26 -2 -9
-15z"/>
<path d="M3960 4915 c0 -8 5 -15 10 -15 6 0 10 7 10 15 0 8 -4 15 -10 15 -5 0
-10 -7 -10 -15z"/>
<path d="M3867 4903 c-9 -9 12 -33 29 -33 19 0 18 26 -2 34 -19 7 -19 7 -27
-1z"/>
<path d="M3746 4880 c-3 -8 -10 -35 -16 -59 -10 -38 -9 -46 4 -53 21 -12 20
-25 -3 -33 -28 -8 -31 -36 -11 -95 18 -52 60 -111 46 -63 -14 45 -13 99 1 127
11 22 14 47 10 93 -7 69 -22 110 -31 83z"/>
<path d="M4020 4864 c0 -8 5 -12 10 -9 6 4 8 11 5 16 -9 14 -15 11 -15 -7z"/>
<path d="M13930 4791 c0 -14 60 -54 68 -46 4 4 -6 18 -21 31 -29 25 -47 31
-47 15z"/>
<path d="M10295 4625 c2 -11 4 -26 4 -32 1 -17 21 -17 21 0 0 7 -6 22 -14 33
-15 19 -15 19 -11 -1z"/>
<path d="M3641 4562 l-22 -42 25 -12 c14 -6 24 -18 23 -27 -1 -9 3 -16 8 -16
14 0 14 75 0 109 l-13 30 -21 -42z"/>
<path d="M3822 4549 c2 -6 8 -10 13 -10 5 0 11 4 13 10 2 6 -4 11 -13 11 -9 0
-15 -5 -13 -11z"/>
<path d="M3745 4484 c-14 -15 -25 -30 -25 -35 0 -4 -3 -14 -6 -22 -9 -24 19
-26 87 -7 86 24 97 29 95 43 -4 26 -17 36 -38 28 -25 -9 -68 -3 -68 10 0 17
-21 9 -45 -17z"/>
<path d="M9980 4488 c0 -4 1 -8 3 -8 2 0 53 -20 113 -45 119 -50 154 -55 154
-27 0 42 -57 65 -193 80 -42 4 -77 5 -77 0z"/>
<path d="M3590 4435 c0 -35 13 -47 23 -21 7 18 -3 56 -14 56 -5 0 -9 -16 -9
-35z"/>
<path d="M10280 4379 c0 -9 41 -29 61 -29 19 0 -1 18 -31 28 -19 7 -30 7 -30
1z"/>
<path d="M9690 2713 c0 -5 4 -15 10 -23 11 -18 25 -7 17 15 -6 15 -27 21 -27
8z"/>
<path d="M8445 2198 c-3 -9 -1 -27 6 -40 10 -17 14 -19 16 -7 2 8 0 26 -6 40
-7 20 -10 21 -16 7z"/>
<path d="M9870 2081 c0 -6 5 -13 10 -16 6 -3 10 1 10 9 0 9 -4 16 -10 16 -5 0
-10 -4 -10 -9z"/>
<path d="M9910 1993 c0 -13 5 -23 10 -23 13 0 13 11 0 30 -8 12 -10 11 -10 -7z"/>
<path d="M9954 1782 c3 -24 7 -46 10 -50 4 -7 61 -341 70 -412 36 -270 35
-267 53 -350 9 -41 18 -91 19 -110 9 -105 27 -219 44 -279 5 -19 6 -41 1 -50
-6 -10 0 -45 15 -95 22 -73 46 -209 58 -335 6 -57 30 -106 47 -95 12 7 9 39
-21 229 -25 158 -31 194 -36 230 -4 28 -16 93 -19 105 0 3 -5 32 -10 65 -5 33
-9 62 -10 65 -1 5 -15 94 -21 130 -1 8 -9 58 -18 110 -9 52 -21 120 -26 150
-6 30 -12 66 -15 80 -3 14 -10 52 -16 85 -23 129 -89 453 -103 504 -19 67 -30
79 -22 23z"/>
<path d="M9430 1716 c0 -8 5 -18 10 -21 6 -3 10 3 10 14 0 12 -4 21 -10 21 -5
0 -10 -6 -10 -14z"/>
<path d="M8555 1631 c-3 -5 -1 -12 5 -16 5 -3 10 1 10 9 0 18 -6 21 -15 7z"/>
<path d="M8775 1441 c-6 -11 9 -23 19 -14 9 9 7 23 -3 23 -6 0 -12 -4 -16 -9z"/>
<path d="M8900 1341 c0 -5 5 -13 10 -16 6 -3 10 -2 10 4 0 5 -4 13 -10 16 -5
3 -10 2 -10 -4z"/>
<path d="M8937 1284 c-9 -9 4 -35 14 -28 5 3 9 12 9 20 0 14 -12 19 -23 8z"/>
<path d="M9225 1280 c3 -5 8 -10 11 -10 2 0 4 5 4 10 0 6 -5 10 -11 10 -5 0
-7 -4 -4 -10z"/>
<path d="M9042 1271 c4 -13 18 -16 19 -4 0 4 -5 9 -11 12 -7 2 -11 -2 -8 -8z"/>
<path d="M9110 1172 c0 -5 9 -17 19 -26 18 -16 18 -21 6 -57 -13 -37 -13 -40
11 -69 14 -16 30 -28 34 -25 19 11 -9 136 -36 166 -18 20 -34 25 -34 11z"/>
<path d="M9370 1101 c0 -5 5 -13 10 -16 6 -3 10 -2 10 4 0 5 -4 13 -10 16 -5
3 -10 2 -10 -4z"/>
<path d="M9312 1080 c0 -14 2 -19 5 -12 2 6 2 18 0 25 -3 6 -5 1 -5 -13z"/>
</g>
</svg>
